<svg width="130" height="29" viewBox="0 0 130 29" fill="none" xmlns="http://www.w3.org/2000/svg">
<path d="M0.184006 28.3652H9.58518C15.3897 28.3652 19.8054 25.9859 19.8054 20.848C19.8054 17.3997 17.7044 15.4687 14.8555 14.8135V14.6411C17.099 13.8825 18.4522 11.4687 18.4522 9.12386C18.4522 4.36524 14.3214 2.81352 8.90858 2.81352H0.184006V28.3652ZM5.45436 13.2273V6.74455H8.58809C11.7574 6.74455 13.3243 7.6411 13.3243 9.88248C13.3243 11.917 11.8643 13.2273 8.51687 13.2273H5.45436ZM5.45436 24.4342V16.9859H9.12225C12.7545 16.9859 14.6775 18.0549 14.6775 20.5377C14.6775 23.1928 12.7189 24.4342 9.12225 24.4342H5.45436ZM23.9954 28.3652H29.2302V16.848C30.3341 14.0549 32.2215 13.0549 33.7883 13.0549C34.6074 13.0549 35.1771 13.1583 35.8893 13.3652L36.7796 8.98593C36.1742 8.74455 35.5332 8.57214 34.4293 8.57214C32.3639 8.57214 30.2273 9.95145 28.7672 12.4687H28.6604L28.2687 9.0549H23.9954V28.3652ZM43.307 28.848C45.5861 28.848 47.5803 27.7445 49.3252 26.2963H49.4676L49.8237 28.3652H54.097V17.0894C54.097 11.5032 51.4974 8.57214 46.4407 8.57214C43.307 8.57214 40.4582 9.71007 38.1079 11.1239L39.9952 14.4687C41.847 13.4342 43.6275 12.6411 45.4792 12.6411C47.9364 12.6411 48.791 14.0894 48.8979 15.9859C40.8499 16.8135 37.3957 18.9859 37.3957 23.1239C37.3957 26.3997 39.746 28.848 43.307 28.848ZM45.0163 24.8825C43.4851 24.8825 42.3811 24.2273 42.3811 22.7101C42.3811 20.9859 44.0192 19.6756 48.8979 19.0894V22.9859C47.6159 24.1928 46.512 24.8825 45.0163 24.8825ZM59.4322 28.3652H64.6669V15.0894C66.127 13.6756 67.1597 12.917 68.7978 12.917C70.7563 12.917 71.611 13.9514 71.611 16.9514V28.3652H76.8457V16.3308C76.8457 11.4687 74.994 8.57214 70.6851 8.57214C67.9787 8.57214 65.9489 9.95145 64.204 11.6066H64.0972L63.7055 9.0549H59.4322V28.3652ZM89.2605 28.848C91.3259 28.848 93.3201 27.7446 94.7801 26.3652H94.9225L95.3142 28.3652H99.5517V0.848H94.3528V7.6411L94.5308 10.6756C93.1064 9.39972 91.7176 8.57214 89.4741 8.57214C85.1652 8.57214 81.1056 12.4342 81.1056 18.7101C81.1056 25.0549 84.3106 28.848 89.2605 28.848ZM90.6137 24.6756C87.9785 24.6756 86.4828 22.6756 86.4828 18.6756C86.4828 14.8135 88.3702 12.7446 90.6137 12.7446C91.86 12.7446 93.142 13.1239 94.3528 14.1928V22.6756C93.1776 24.1239 92.0025 24.6756 90.6137 24.6756ZM113.337 28.3652H129.184V24.2618H124.234V3.50317H120.353C118.679 4.50317 116.863 5.15835 114.228 5.6411V8.77903H118.999V24.2618H113.337V28.3652Z" fill="black"/>
</svg>
