<svg width="134" height="50" viewBox="0 0 134 50" fill="none" xmlns="http://www.w3.org/2000/svg">
<path d="M99.3446 46H89.5985V44.0664L94.1981 39.1641C94.8296 38.474 95.2951 37.8717 95.5946 37.3574C95.9006 36.8431 96.0536 36.3548 96.0536 35.8926C96.0536 35.2611 95.894 34.7663 95.575 34.4082C95.256 34.0436 94.8003 33.8613 94.2078 33.8613C93.5698 33.8613 93.0653 34.0827 92.6942 34.5254C92.3296 34.9616 92.1473 35.5378 92.1473 36.2539H89.3153C89.3153 35.388 89.5203 34.597 89.9305 33.8809C90.3472 33.1647 90.9331 32.6048 91.6883 32.2012C92.4435 31.791 93.2996 31.5859 94.2567 31.5859C95.7215 31.5859 96.8576 31.9375 97.6649 32.6406C98.4787 33.3438 98.8856 34.3366 98.8856 35.6191C98.8856 36.3223 98.7033 37.0384 98.3387 37.7676C97.9741 38.4967 97.3491 39.3464 96.4637 40.3164L93.2313 43.7246H99.3446V46ZM110.653 40.1211C110.653 42.0872 110.246 43.5911 109.432 44.6328C108.619 45.6745 107.427 46.1953 105.858 46.1953C104.309 46.1953 103.124 45.6842 102.304 44.6621C101.483 43.64 101.063 42.1751 101.044 40.2676V37.6504C101.044 35.6647 101.454 34.1576 102.274 33.1289C103.101 32.1003 104.289 31.5859 105.839 31.5859C107.388 31.5859 108.573 32.097 109.393 33.1191C110.214 34.1348 110.634 35.5964 110.653 37.5039V40.1211ZM107.831 37.25C107.831 36.0716 107.668 35.2155 107.343 34.6816C107.024 34.1413 106.522 33.8711 105.839 33.8711C105.175 33.8711 104.683 34.1283 104.364 34.6426C104.052 35.1504 103.886 35.9479 103.866 37.0352V40.4922C103.866 41.651 104.022 42.5137 104.335 43.0801C104.654 43.64 105.162 43.9199 105.858 43.9199C106.548 43.9199 107.046 43.6497 107.352 43.1094C107.658 42.569 107.818 41.7422 107.831 40.6289V37.25ZM115.438 37.6406H116.942C117.658 37.6406 118.189 37.4616 118.534 37.1035C118.879 36.7454 119.052 36.2702 119.052 35.6777C119.052 35.1048 118.879 34.6589 118.534 34.3398C118.195 34.0208 117.727 33.8613 117.128 33.8613C116.587 33.8613 116.135 34.0111 115.77 34.3105C115.406 34.6035 115.223 34.9876 115.223 35.4629H112.401C112.401 34.7207 112.6 34.0566 112.997 33.4707C113.401 32.8783 113.96 32.416 114.677 32.084C115.399 31.752 116.194 31.5859 117.059 31.5859C118.563 31.5859 119.742 31.9473 120.595 32.6699C121.447 33.3861 121.874 34.3757 121.874 35.6387C121.874 36.2897 121.675 36.8887 121.278 37.4355C120.881 37.9824 120.36 38.4023 119.716 38.6953C120.516 38.9818 121.112 39.4115 121.503 39.9844C121.9 40.5573 122.098 41.2344 122.098 42.0156C122.098 43.2786 121.636 44.291 120.712 45.0527C119.794 45.8145 118.576 46.1953 117.059 46.1953C115.64 46.1953 114.478 45.821 113.573 45.0723C112.675 44.3236 112.225 43.334 112.225 42.1035H115.048C115.048 42.6374 115.246 43.0736 115.643 43.4121C116.047 43.7507 116.542 43.9199 117.128 43.9199C117.798 43.9199 118.322 43.7441 118.7 43.3926C119.084 43.0345 119.276 42.5625 119.276 41.9766C119.276 40.5573 118.495 39.8477 116.932 39.8477H115.438V37.6406ZM133.622 40.1211C133.622 42.0872 133.215 43.5911 132.401 44.6328C131.587 45.6745 130.396 46.1953 128.827 46.1953C127.278 46.1953 126.093 45.6842 125.272 44.6621C124.452 43.64 124.032 42.1751 124.013 40.2676V37.6504C124.013 35.6647 124.423 34.1576 125.243 33.1289C126.07 32.1003 127.258 31.5859 128.807 31.5859C130.357 31.5859 131.542 32.097 132.362 33.1191C133.182 34.1348 133.602 35.5964 133.622 37.5039V40.1211ZM130.8 37.25C130.8 36.0716 130.637 35.2155 130.311 34.6816C129.992 34.1413 129.491 33.8711 128.807 33.8711C128.143 33.8711 127.652 34.1283 127.333 34.6426C127.02 35.1504 126.854 35.9479 126.835 37.0352V40.4922C126.835 41.651 126.991 42.5137 127.304 43.0801C127.623 43.64 128.13 43.9199 128.827 43.9199C129.517 43.9199 130.015 43.6497 130.321 43.1094C130.627 42.569 130.787 41.7422 130.8 40.6289V37.25Z" fill="#0A0A0A"/>
<path d="M43.2762 12.6191C43.2762 11.571 43.478 10.6367 43.8817 9.81641C44.2853 8.99609 44.8647 8.36133 45.62 7.91211C46.3817 7.46289 47.2638 7.23828 48.2664 7.23828C49.6922 7.23828 50.8543 7.67448 51.7528 8.54688C52.6577 9.41927 53.1623 10.6042 53.2664 12.1016L53.286 12.8242C53.286 14.4453 52.8335 15.7474 51.9286 16.7305C51.0236 17.707 49.8094 18.1953 48.286 18.1953C46.7625 18.1953 45.5451 17.707 44.6336 16.7305C43.7287 15.7539 43.2762 14.4258 43.2762 12.7461V12.6191ZM46.0985 12.8242C46.0985 13.8268 46.2873 14.5951 46.6649 15.1289C47.0425 15.6562 47.5828 15.9199 48.286 15.9199C48.9696 15.9199 49.5034 15.6595 49.8875 15.1387C50.2716 14.6113 50.4637 13.7715 50.4637 12.6191C50.4637 11.6361 50.2716 10.8743 49.8875 10.334C49.5034 9.79362 48.9631 9.52344 48.2664 9.52344C47.5763 9.52344 47.0425 9.79362 46.6649 10.334C46.2873 10.8678 46.0985 11.6979 46.0985 12.8242ZM57.6707 7.43359L57.7586 8.61523C58.5073 7.69727 59.5197 7.23828 60.7957 7.23828C62.1564 7.23828 63.0907 7.77539 63.5985 8.84961C64.3407 7.77539 65.3986 7.23828 66.7723 7.23828C67.9181 7.23828 68.771 7.57357 69.3309 8.24414C69.8908 8.9082 70.1707 9.91081 70.1707 11.252V18H67.3387V11.2617C67.3387 10.6628 67.2215 10.2266 66.9871 9.95312C66.7528 9.67318 66.3394 9.5332 65.7469 9.5332C64.9006 9.5332 64.3146 9.93685 63.9891 10.7441L63.9989 18H61.1766V11.2715C61.1766 10.6595 61.0562 10.2168 60.8153 9.94336C60.5744 9.66992 60.1642 9.5332 59.5848 9.5332C58.784 9.5332 58.2046 9.86523 57.8465 10.5293V18H55.0243V7.43359H57.6707ZM74.995 7.43359L75.0828 8.61523C75.8315 7.69727 76.8439 7.23828 78.12 7.23828C79.4806 7.23828 80.4149 7.77539 80.9227 8.84961C81.6649 7.77539 82.7228 7.23828 84.0965 7.23828C85.2424 7.23828 86.0952 7.57357 86.6551 8.24414C87.215 8.9082 87.495 9.91081 87.495 11.252V18H84.6629V11.2617C84.6629 10.6628 84.5457 10.2266 84.3114 9.95312C84.077 9.67318 83.6636 9.5332 83.0711 9.5332C82.2248 9.5332 81.6388 9.93685 81.3133 10.7441L81.3231 18H78.5008V11.2715C78.5008 10.6595 78.3804 10.2168 78.1395 9.94336C77.8986 9.66992 77.4884 9.5332 76.909 9.5332C76.1082 9.5332 75.5288 9.86523 75.1707 10.5293V18H72.3485V7.43359H74.995ZM96.0008 16.9258C95.3042 17.7721 94.3407 18.1953 93.1102 18.1953C91.9774 18.1953 91.1115 17.8698 90.5125 17.2188C89.9201 16.5677 89.6174 15.6139 89.6043 14.3574V7.43359H92.4266V14.2598C92.4266 15.36 92.9279 15.9102 93.9305 15.9102C94.8875 15.9102 95.5451 15.5781 95.9032 14.9141V7.43359H98.7352V18H96.0789L96.0008 16.9258ZM103.462 7.43359L103.55 8.6543C104.305 7.71029 105.317 7.23828 106.587 7.23828C107.707 7.23828 108.54 7.56706 109.087 8.22461C109.634 8.88216 109.914 9.86523 109.927 11.1738V18H107.104V11.2422C107.104 10.6432 106.974 10.2103 106.714 9.94336C106.453 9.66992 106.02 9.5332 105.415 9.5332C104.621 9.5332 104.025 9.87174 103.628 10.5488V18H100.806V7.43359H103.462ZM115.054 18H112.222V7.43359H115.054V18ZM112.056 4.69922C112.056 4.27604 112.195 3.92773 112.475 3.6543C112.762 3.38086 113.149 3.24414 113.638 3.24414C114.119 3.24414 114.503 3.38086 114.79 3.6543C115.076 3.92773 115.22 4.27604 115.22 4.69922C115.22 5.12891 115.073 5.48047 114.78 5.75391C114.494 6.02734 114.113 6.16406 113.638 6.16406C113.162 6.16406 112.778 6.02734 112.485 5.75391C112.199 5.48047 112.056 5.12891 112.056 4.69922ZM120.766 4.83594V7.43359H122.573V9.50391H120.766V14.7773C120.766 15.168 120.841 15.4479 120.991 15.6172C121.141 15.7865 121.427 15.8711 121.85 15.8711C122.163 15.8711 122.44 15.8483 122.681 15.8027V17.9414C122.127 18.1107 121.557 18.1953 120.972 18.1953C118.992 18.1953 117.983 17.196 117.944 15.1973V9.50391H116.401V7.43359H117.944V4.83594H120.766ZM128.091 14.0059L130.044 7.43359H133.071L128.823 19.6406L128.589 20.1973C127.957 21.5775 126.916 22.2676 125.464 22.2676C125.054 22.2676 124.637 22.2057 124.214 22.082V19.9434L124.643 19.9531C125.177 19.9531 125.574 19.8717 125.835 19.709C126.102 19.5462 126.31 19.276 126.46 18.8984L126.792 18.0293L123.091 7.43359H126.128L128.091 14.0059Z" fill="#FE806F"/>
<path d="M46.6942 41H43.8621V30.4336H46.6942V41ZM43.6961 27.6992C43.6961 27.276 43.8361 26.9277 44.1161 26.6543C44.4025 26.3809 44.7899 26.2441 45.2782 26.2441C45.7599 26.2441 46.144 26.3809 46.4305 26.6543C46.717 26.9277 46.8602 27.276 46.8602 27.6992C46.8602 28.1289 46.7137 28.4805 46.4207 28.7539C46.1343 29.0273 45.7534 29.1641 45.2782 29.1641C44.8029 29.1641 44.4188 29.0273 44.1258 28.7539C43.8394 28.4805 43.6961 28.1289 43.6961 27.6992ZM54.7508 38.0801C54.7508 37.735 54.5783 37.4648 54.2332 37.2695C53.8947 37.0677 53.3478 36.8887 52.5926 36.7324C50.0796 36.2051 48.8231 35.1374 48.8231 33.5293C48.8231 32.5918 49.2105 31.8105 49.9852 31.1855C50.7664 30.554 51.7853 30.2383 53.0418 30.2383C54.383 30.2383 55.4539 30.554 56.2547 31.1855C57.062 31.8171 57.4657 32.6374 57.4657 33.6465H54.6434C54.6434 33.2428 54.5132 32.9108 54.2528 32.6504C53.9924 32.3835 53.5855 32.25 53.0321 32.25C52.5568 32.25 52.189 32.3574 51.9286 32.5723C51.6681 32.7871 51.5379 33.0605 51.5379 33.3926C51.5379 33.7051 51.6844 33.959 51.9774 34.1543C52.2769 34.3431 52.7782 34.5091 53.4813 34.6523C54.1844 34.7891 54.7769 34.9453 55.2586 35.1211C56.7495 35.668 57.495 36.6152 57.495 37.9629C57.495 38.9264 57.0815 39.7077 56.2547 40.3066C55.4279 40.8991 54.3602 41.1953 53.0516 41.1953C52.1662 41.1953 51.3784 41.0391 50.6883 40.7266C50.0047 40.4076 49.4676 39.9746 49.077 39.4277C48.6864 38.8743 48.4911 38.2786 48.4911 37.6406H51.1668C51.1929 38.1419 51.3784 38.526 51.7235 38.793C52.0685 39.0599 52.5308 39.1934 53.1102 39.1934C53.6506 39.1934 54.0575 39.0924 54.3309 38.8906C54.6108 38.6823 54.7508 38.4121 54.7508 38.0801ZM62.2996 41H59.4676V30.4336H62.2996V41ZM59.3016 27.6992C59.3016 27.276 59.4416 26.9277 59.7215 26.6543C60.008 26.3809 60.3953 26.2441 60.8836 26.2441C61.3654 26.2441 61.7495 26.3809 62.036 26.6543C62.3224 26.9277 62.4657 27.276 62.4657 27.6992C62.4657 28.1289 62.3192 28.4805 62.0262 28.7539C61.7397 29.0273 61.3589 29.1641 60.8836 29.1641C60.4084 29.1641 60.0243 29.0273 59.7313 28.7539C59.4448 28.4805 59.3016 28.1289 59.3016 27.6992ZM64.1942 35.6191C64.1942 34.571 64.396 33.6367 64.7996 32.8164C65.2033 31.9961 65.7827 31.3613 66.5379 30.9121C67.2996 30.4629 68.1818 30.2383 69.1844 30.2383C70.6102 30.2383 71.7723 30.6745 72.6707 31.5469C73.5757 32.4193 74.0802 33.6042 74.1844 35.1016L74.2039 35.8242C74.2039 37.4453 73.7515 38.7474 72.8465 39.7305C71.9416 40.707 70.7274 41.1953 69.2039 41.1953C67.6805 41.1953 66.4631 40.707 65.5516 39.7305C64.6466 38.7539 64.1942 37.4258 64.1942 35.7461V35.6191ZM67.0164 35.8242C67.0164 36.8268 67.2052 37.5951 67.5828 38.1289C67.9605 38.6562 68.5008 38.9199 69.2039 38.9199C69.8875 38.9199 70.4214 38.6595 70.8055 38.1387C71.1896 37.6113 71.3817 36.7715 71.3817 35.6191C71.3817 34.6361 71.1896 33.8743 70.8055 33.334C70.4214 32.7936 69.881 32.5234 69.1844 32.5234C68.4943 32.5234 67.9605 32.7936 67.5828 33.334C67.2052 33.8678 67.0164 34.6979 67.0164 35.8242ZM78.5399 30.4336L78.6278 31.6543C79.383 30.7103 80.3953 30.2383 81.6649 30.2383C82.7847 30.2383 83.618 30.5671 84.1649 31.2246C84.7118 31.8822 84.9917 32.8652 85.0047 34.1738V41H82.1825V34.2422C82.1825 33.6432 82.0522 33.2103 81.7918 32.9434C81.5314 32.6699 81.0985 32.5332 80.493 32.5332C79.6987 32.5332 79.103 32.8717 78.7059 33.5488V41H75.8836V30.4336H78.5399Z" fill="black"/>
<path d="M30.4371 -7.6343e-07C28.3 1.38838 26.5419 3.28572 25.3852 5.4521C24.2286 7.61848 23.7252 9.9566 23.9388 12.1708C24.1524 14.385 25.0733 16.3758 26.5852 17.8916C28.0971 19.4073 30.132 20.3798 32.4325 20.6862C33.9593 20.894 35.567 20.8007 37.1623 20.4118C38.7577 20.0228 40.309 19.3459 41.7265 18.4202L30.4371 -7.6343e-07V-7.6343e-07Z" fill="#FE806F"/>
<path d="M17.827 38.8752L52.1494 20.5968C32.254 29.3904 23.1951 28.4133 16.4953 0.0119692L17.827 38.8752Z" fill="#020202"/>
</svg>
